<svg xmlns="http://www.w3.org/2000/svg" width="1371" height="765" viewBox="0 0 1371 765">
<g>
<path d="M 720.50 653.52 C710.97,654.99 674.83,656.31 668.50,655.42 C666.85,655.19 661.22,654.52 656.00,653.93 C614.81,649.31 570.28,630.34 536.32,602.94 C518.33,588.42 498.48,566.09 484.57,544.74 C476.77,532.77 464.96,508.00 460.15,493.50 C451.00,465.93 446.71,432.43 448.80,404.82 C451.40,370.35 458.20,344.75 472.52,315.50 C484.66,290.69 499.98,269.88 521.10,249.48 C555.27,216.48 593.86,196.65 642.00,187.34 C653.54,185.10 659.02,184.65 679.69,184.25 C694.93,183.95 707.62,184.21 713.97,184.95 C767.64,191.19 815.06,214.05 853.02,251.99 C890.20,289.15 912.41,332.84 920.70,385.14 C923.22,401.02 923.18,438.87 920.64,454.50 C913.56,498.02 896.24,535.93 867.79,570.21 C830.60,615.00 778.25,644.62 720.50,653.52 ZM 670.00 652.35 C699.32,655.10 737.75,649.27 768.75,637.39 C801.03,625.01 828.27,606.84 853.53,580.84 C886.93,546.46 908.62,504.32 916.50,458.50 C933.96,357.04 880.45,253.73 787.50,209.41 C712.40,173.62 623.90,179.97 555.00,226.10 C536.19,238.70 523.13,250.26 508.27,267.50 C483.91,295.75 466.38,330.16 457.56,367.03 C449.51,400.69 449.88,441.76 458.53,475.64 C466.94,508.58 480.82,536.55 501.87,563.00 C543.84,615.75 600.48,645.84 670.00,652.35 ZM 719.50 647.53 C710.01,649.05 674.12,650.34 667.50,649.41 C665.85,649.18 659.33,648.28 653.00,647.41 C614.01,642.08 572.99,624.32 541.50,599.16 C501.78,567.41 471.75,519.92 460.52,471.06 C451.27,430.84 453.42,385.85 466.47,346.72 C494.68,262.14 568.15,202.53 658.50,190.93 C670.37,189.41 699.94,189.40 712.50,190.92 C792.23,200.57 858.78,247.83 893.58,319.50 C909.45,352.19 916.45,383.20 916.38,420.50 C916.31,454.62 910.32,482.48 896.37,513.50 C876.23,558.30 838.83,598.36 794.69,622.42 C772.34,634.61 746.54,643.22 719.50,647.53 ZM 667.00 591.41 C668.38,591.65 678.72,591.69 690.00,591.50 C713.05,591.11 723.36,589.36 743.00,582.50 C799.10,562.91 844.02,511.75 855.39,454.50 C862.94,416.47 858.20,379.15 841.40,344.44 C808.96,277.38 736.88,238.60 662.98,248.44 C547.24,263.85 479.13,388.26 529.10,493.00 C537.88,511.39 547.51,524.70 563.91,541.07 C579.83,556.97 592.10,565.95 609.53,574.49 C621.51,580.35 642.79,587.32 655.00,589.37 C660.22,590.25 665.62,591.17 667.00,591.41 Z" fill="rgb(5,119,73)"/>
<path d="M 701.00 459.00 L 674.58 459.00 C660.05,459.00 647.41,458.71 646.48,458.36 C645.19,457.86 651.07,451.44 672.14,430.36 C687.18,415.31 699.83,403.00 700.24,403.00 C700.66,403.00 701.00,415.60 701.00,431.00 L 701.00 459.00 L 757.00 459.00 L 757.00 402.00 L 729.50 402.00 C714.38,402.00 702.00,401.66 702.00,401.24 C702.00,400.83 714.38,388.12 729.50,373.00 L 757.00 345.51 L 757.00 402.00 L 814.00 402.00 L 814.00 346.00 L 786.00 346.00 C770.60,346.00 758.00,345.66 758.00,345.24 C758.00,344.82 768.12,334.37 780.49,322.01 L 802.97 299.54 L 814.00 310.43 L 814.00 346.00 L 836.73 346.00 L 839.95 353.21 C841.73,357.17 844.46,364.26 846.03,368.96 C849.06,377.99 853.36,399.61 852.43,401.11 C852.13,401.60 843.37,402.00 832.96,402.00 L 814.03 402.00 L 813.50 458.50 L 785.25 458.77 L 757.00 459.03 L 757.00 515.00 L 814.00 515.00 L 814.00 459.00 L 831.50 459.00 C843.78,459.00 849.00,459.34 849.00,460.12 C849.00,462.49 842.04,481.88 838.25,490.09 C836.07,494.81 831.92,502.35 829.04,506.84 L 823.81 515.00 L 814.00 515.00 L 814.00 528.18 L 804.75 537.40 C799.66,542.48 791.22,549.81 786.00,553.71 C775.48,561.55 759.17,571.23 757.85,570.41 C757.38,570.12 757.00,557.53 757.00,542.44 L 757.00 515.00 L 701.00 515.00 L 701.00 571.97 L 728.25 572.23 L 755.50 572.50 L 744.50 576.63 C738.45,578.90 729.22,581.73 724.00,582.90 C713.28,585.32 702.25,586.92 701.50,586.17 C701.23,585.89 701.00,582.59 701.00,578.83 L 701.00 572.00 L 644.00 572.00 L 644.00 577.00 C644.00,579.75 643.80,582.00 643.56,582.00 C642.49,582.00 624.75,575.80 620.82,574.06 L 616.50 572.14 L 630.25 572.07 L 644.00 572.00 L 644.00 515.00 L 588.00 515.00 L 588.00 535.00 C588.00,546.00 587.73,555.00 587.39,555.00 C586.31,555.00 574.63,545.30 570.09,540.63 L 565.68 536.10 L 604.59 497.35 L 643.50 458.60 L 643.77 486.80 L 644.03 515.00 L 701.00 515.00 ZM 782.50 282.42 L 785.11 284.50 L 667.60 401.30 L 550.08 518.09 L 546.73 513.47 C544.89,510.93 541.94,506.23 540.18,503.03 L 536.98 497.21 L 650.06 384.86 C712.25,323.06 763.73,272.36 764.46,272.20 C765.83,271.89 777.80,278.67 782.50,282.42 ZM 551.71 448.97 C538.63,461.91 527.57,472.63 527.13,472.78 C525.66,473.29 519.26,448.01 520.39,446.18 C520.68,445.71 564.33,402.26 617.39,349.61 L 713.86 253.89 L 722.68 255.97 C727.53,257.11 733.64,258.75 736.26,259.60 L 741.02 261.17 L 658.26 343.30 C612.74,388.48 564.80,436.03 551.71,448.97 ZM 660.00 274.21 C647.62,286.55 610.55,323.39 577.62,356.07 L 517.74 415.50 L 518.33 406.00 C519.08,394.21 522.54,377.39 524.80,374.57 C525.74,373.41 552.60,346.55 584.50,314.87 L 642.50 257.28 L 654.00 255.16 C660.33,253.98 669.33,252.75 674.00,252.40 L 682.50 251.78 ZM 638.00 108.00 C636.03,109.28 629.29,109.28 628.50,108.00 C628.11,107.38 630.07,107.01 633.69,107.02 C637.81,107.03 639.06,107.31 638.00,108.00 Z" fill="rgb(192,23,31)"/>
<path d="M 602.87 192.05 C598.47,193.67 594.68,195.00 594.45,195.00 C593.82,195.00 592.16,192.15 578.97,168.50 C572.22,156.40 562.23,138.53 556.77,128.80 C550.40,117.42 546.97,110.27 547.17,108.80 C547.50,106.53 547.66,106.50 561.50,106.50 L 575.50 106.50 L 576.03 111.09 C576.93,118.97 582.00,124.15 590.15,125.52 C595.47,126.42 600.26,124.56 604.41,119.97 C607.82,116.19 608.62,114.38 609.22,109.00 L 609.50 106.50 L 625.37 106.22 C635.23,106.05 641.70,106.34 642.48,106.98 C643.16,107.55 643.99,110.27 644.32,113.04 C645.67,124.45 655.14,136.98 666.76,142.73 C674.20,146.41 674.67,146.50 685.49,146.50 C696.31,146.50 696.79,146.40 704.22,142.73 C716.22,136.81 723.99,126.59 727.05,112.73 C728.03,108.29 728.81,106.84 730.41,106.44 C731.56,106.16 739.02,106.06 746.98,106.21 L 761.47 106.50 L 762.06 110.00 C764.26,123.15 776.94,129.60 787.70,123.04 C792.01,120.41 794.34,116.59 794.97,111.09 L 795.50 106.50 L 809.77 106.22 C822.42,105.98 824.12,106.14 824.69,107.64 C825.05,108.58 824.54,110.72 823.54,112.42 C819.89,118.68 804.45,146.20 791.25,170.00 C783.78,183.48 777.57,194.63 777.46,194.78 C777.36,194.94 770.54,192.82 762.31,190.07 C733.87,180.57 711.59,177.47 677.68,178.27 C659.43,178.70 653.24,179.25 642.78,181.33 C627.30,184.42 613.54,188.12 602.87,192.05 ZM 694.75 126.46 C689.95,128.47 679.40,128.40 675.50,126.33 C670.74,123.82 668.98,121.88 665.89,115.78 C661.01,106.12 662.55,96.49 670.13,89.30 C688.52,71.85 716.58,93.08 705.11,115.78 C701.79,122.35 699.89,124.31 694.75,126.46 ZM 638.00 108.00 C639.06,107.31 637.81,107.03 633.69,107.02 C630.07,107.01 628.11,107.38 628.50,108.00 C629.29,109.28 636.03,109.28 638.00,108.00 Z" fill="rgb(200,168,86)"/>
<path d="M 0.00 382.50 L 0.00 0.00 L 685.50 0.00 L 1371.00 0.00 L 1371.00 382.50 L 1371.00 765.00 L 685.50 765.00 L 0.00 765.00 L 0.00 382.50 ZM 720.50 653.52 C778.25,644.62 830.60,615.00 867.79,570.21 C896.24,535.93 913.56,498.02 920.64,454.50 C923.18,438.87 923.22,401.02 920.70,385.14 C912.41,332.84 890.20,289.15 853.02,251.99 C815.06,214.05 767.64,191.19 713.97,184.95 C707.62,184.21 694.93,183.95 679.69,184.25 C659.02,184.65 653.54,185.10 642.00,187.34 C593.86,196.65 555.27,216.48 521.10,249.48 C499.98,269.88 484.66,290.69 472.52,315.50 C458.20,344.75 451.40,370.35 448.80,404.82 C446.71,432.43 451.00,465.93 460.15,493.50 C464.96,508.00 476.77,532.77 484.57,544.74 C498.48,566.09 518.33,588.42 536.32,602.94 C570.28,630.34 614.81,649.31 656.00,653.93 C661.22,654.52 666.85,655.19 668.50,655.42 C674.83,656.31 710.97,654.99 720.50,653.52 ZM 602.87 192.05 C613.54,188.12 627.30,184.42 642.78,181.33 C653.24,179.25 659.43,178.70 677.68,178.27 C711.59,177.47 733.87,180.57 762.31,190.07 C770.54,192.82 777.36,194.94 777.46,194.78 C777.57,194.63 783.78,183.48 791.25,170.00 C804.45,146.20 819.89,118.68 823.54,112.42 C824.54,110.72 825.05,108.58 824.69,107.64 C824.12,106.14 822.42,105.98 809.77,106.22 L 795.50 106.50 L 794.97 111.09 C794.34,116.59 792.01,120.41 787.70,123.04 C776.94,129.60 764.26,123.15 762.06,110.00 L 761.47 106.50 L 746.98 106.21 C739.02,106.06 731.56,106.16 730.41,106.44 C728.81,106.84 728.03,108.29 727.05,112.73 C723.99,126.59 716.22,136.81 704.22,142.73 C696.79,146.40 696.31,146.50 685.49,146.50 C674.67,146.50 674.20,146.41 666.76,142.73 C655.14,136.98 645.67,124.45 644.32,113.04 C643.99,110.27 643.16,107.55 642.48,106.98 C641.70,106.34 635.23,106.05 625.37,106.22 L 609.50 106.50 L 609.22 109.00 C608.62,114.38 607.82,116.19 604.41,119.97 C600.26,124.56 595.47,126.42 590.15,125.52 C582.00,124.15 576.93,118.97 576.03,111.09 L 575.50 106.50 L 561.50 106.50 C547.66,106.50 547.50,106.53 547.17,108.80 C546.97,110.27 550.40,117.42 556.77,128.80 C562.23,138.53 572.22,156.40 578.97,168.50 C592.16,192.15 593.82,195.00 594.45,195.00 C594.68,195.00 598.47,193.67 602.87,192.05 ZM 694.75 126.46 C699.89,124.31 701.79,122.35 705.11,115.78 C716.58,93.08 688.52,71.85 670.13,89.30 C662.55,96.49 661.01,106.12 665.89,115.78 C668.98,121.88 670.74,123.82 675.50,126.33 C679.40,128.40 689.95,128.47 694.75,126.46 ZM 670.00 652.35 C600.48,645.84 543.84,615.75 501.87,563.00 C480.82,536.55 466.94,508.58 458.53,475.64 C449.88,441.76 449.51,400.69 457.56,367.03 C466.38,330.16 483.91,295.75 508.27,267.50 C523.13,250.26 536.19,238.70 555.00,226.10 C623.90,179.97 712.40,173.62 787.50,209.41 C880.45,253.73 933.96,357.04 916.50,458.50 C908.62,504.32 886.93,546.46 853.53,580.84 C828.27,606.84 801.03,625.01 768.75,637.39 C737.75,649.27 699.32,655.10 670.00,652.35 ZM 719.50 647.53 C746.54,643.22 772.34,634.61 794.69,622.42 C838.83,598.36 876.23,558.30 896.37,513.50 C910.32,482.48 916.31,454.62 916.38,420.50 C916.45,383.20 909.45,352.19 893.58,319.50 C858.78,247.83 792.23,200.57 712.50,190.92 C699.94,189.40 670.37,189.41 658.50,190.93 C568.15,202.53 494.68,262.14 466.47,346.72 C453.42,385.85 451.27,430.84 460.52,471.06 C471.75,519.92 501.78,567.41 541.50,599.16 C572.99,624.32 614.01,642.08 653.00,647.41 C659.33,648.28 665.85,649.18 667.50,649.41 C674.12,650.34 710.01,649.05 719.50,647.53 ZM 667.00 591.41 C665.62,591.17 660.22,590.25 655.00,589.37 C642.79,587.32 621.51,580.35 609.53,574.49 C592.10,565.95 579.83,556.97 563.91,541.07 C547.51,524.70 537.88,511.39 529.10,493.00 C479.13,388.26 547.24,263.85 662.98,248.44 C736.88,238.60 808.96,277.38 841.40,344.44 C858.20,379.15 862.94,416.47 855.39,454.50 C844.02,511.75 799.10,562.91 743.00,582.50 C723.36,589.36 713.05,591.11 690.00,591.50 C678.72,591.69 668.38,591.65 667.00,591.41 ZM 724.00 582.90 C729.22,581.73 738.45,578.90 744.50,576.63 L 755.50 572.50 L 728.25 572.23 L 701.00 571.97 L 701.00 543.48 L 701.00 515.00 L 729.00 515.00 L 757.00 515.00 L 757.00 542.44 C757.00,557.53 757.38,570.12 757.85,570.41 C759.17,571.23 775.48,561.55 786.00,553.71 C791.22,549.81 799.66,542.48 804.75,537.40 L 814.00 528.18 L 814.00 521.59 L 814.00 515.00 L 818.90 515.00 L 823.81 515.00 L 829.04 506.84 C831.92,502.35 836.07,494.81 838.25,490.09 C842.04,481.88 849.00,462.49 849.00,460.12 C849.00,459.34 843.78,459.00 831.50,459.00 L 814.00 459.00 L 814.00 487.00 L 814.00 515.00 L 785.50 515.00 L 757.00 515.00 L 757.00 487.02 L 757.00 459.03 L 785.25 458.77 L 813.50 458.50 L 813.77 430.25 L 814.03 402.00 L 832.96 402.00 C843.37,402.00 852.13,401.60 852.43,401.11 C853.36,399.61 849.06,377.99 846.03,368.96 C844.46,364.26 841.73,357.17 839.95,353.21 L 836.73 346.00 L 825.37 346.00 L 814.00 346.00 L 814.00 328.22 L 814.00 310.43 L 808.49 304.99 L 802.97 299.54 L 780.49 322.01 C768.12,334.37 758.00,344.82 758.00,345.24 C758.00,345.66 770.60,346.00 786.00,346.00 L 814.00 346.00 L 814.00 374.00 L 814.00 402.00 L 785.50 402.00 L 757.00 402.00 L 757.00 373.76 L 757.00 345.51 L 729.50 373.00 C714.38,388.12 702.00,400.83 702.00,401.24 C702.00,401.66 714.38,402.00 729.50,402.00 L 757.00 402.00 L 757.00 430.50 L 757.00 459.00 L 729.00 459.00 L 701.00 459.00 L 701.00 431.00 C701.00,415.60 700.66,403.00 700.24,403.00 C699.83,403.00 687.18,415.31 672.14,430.36 C651.07,451.44 645.19,457.86 646.48,458.36 C647.41,458.71 660.05,459.00 674.58,459.00 L 701.00 459.00 L 701.00 487.00 L 701.00 515.00 L 672.52 515.00 L 644.03 515.00 L 643.77 486.80 L 643.50 458.60 L 604.59 497.35 L 565.68 536.10 L 570.09 540.63 C574.63,545.30 586.31,555.00 587.39,555.00 C587.73,555.00 588.00,546.00 588.00,535.00 L 588.00 515.00 L 616.00 515.00 L 644.00 515.00 L 644.00 543.50 L 644.00 572.00 L 630.25 572.07 L 616.50 572.14 L 620.82 574.06 C624.75,575.80 642.49,582.00 643.56,582.00 C643.80,582.00 644.00,579.75 644.00,577.00 L 644.00 572.00 L 672.50 572.00 L 701.00 572.00 L 701.00 578.83 C701.00,582.59 701.23,585.89 701.50,586.17 C702.25,586.92 713.28,585.32 724.00,582.90 ZM 782.50 282.42 C777.80,278.67 765.83,271.89 764.46,272.20 C763.73,272.36 712.25,323.06 650.06,384.86 L 536.98 497.21 L 540.18 503.03 C541.94,506.23 544.89,510.93 546.73,513.47 L 550.08 518.09 L 667.60 401.30 L 785.11 284.50 L 782.50 282.42 ZM 551.71 448.97 C564.80,436.03 612.74,388.48 658.26,343.30 L 741.02 261.17 L 736.26 259.60 C733.64,258.75 727.53,257.11 722.68,255.97 L 713.86 253.89 L 617.39 349.61 C564.33,402.26 520.68,445.71 520.39,446.18 C519.26,448.01 525.66,473.29 527.13,472.78 C527.57,472.63 538.63,461.91 551.71,448.97 ZM 660.00 274.21 L 682.50 251.78 L 674.00 252.40 C669.33,252.75 660.33,253.98 654.00,255.16 L 642.50 257.28 L 584.50 314.87 C552.60,346.55 525.74,373.41 524.80,374.57 C522.54,377.39 519.08,394.21 518.33,406.00 L 517.74 415.50 L 577.62 356.07 C610.55,323.39 647.62,286.55 660.00,274.21 Z" fill="rgb(254,254,254)"/>
</g>
</svg>